<svg xmlns="http://www.w3.org/2000/svg" viewBox="0 0 64 64" fill="none">
  <rect width="64" height="64" rx="14" fill="#0F6A5A"/>
  <!-- hub -->
  <circle cx="32" cy="14" r="3.2" fill="#F3EEE4"/>
  <circle cx="22" cy="10" r="2" fill="#F3EEE4"/>
  <circle cx="42" cy="10" r="2" fill="#F3EEE4"/>
  <circle cx="18" cy="18" r="1.7" fill="#F3EEE4"/>
  <circle cx="46" cy="18" r="1.7" fill="#F3EEE4"/>
  <circle cx="26" cy="20" r="1.5" fill="#F3EEE4"/>
  <circle cx="38" cy="20" r="1.5" fill="#F3EEE4"/>
  <g stroke="#7FB8A8" stroke-width="1.2">
    <line x1="32" y1="14" x2="22" y2="10"/>
    <line x1="32" y1="14" x2="42" y2="10"/>
    <line x1="32" y1="14" x2="18" y2="18"/>
    <line x1="32" y1="14" x2="46" y2="18"/>
    <line x1="32" y1="14" x2="26" y2="20"/>
    <line x1="32" y1="14" x2="38" y2="20"/>
  </g>
  <!-- K stem -->
  <rect x="18" y="26" width="10" height="6" rx="1.5" fill="#F3EEE4"/>
  <rect x="18" y="34" width="10" height="6" rx="1.5" fill="#F3EEE4"/>
  <rect x="18" y="42" width="10" height="6" rx="1.5" fill="#F3EEE4"/>
  <rect x="18" y="50" width="10" height="6" rx="1.5" fill="#F3EEE4"/>
  <!-- K arms -->
  <rect x="30" y="34" width="10" height="6" rx="1.5" fill="#F3EEE4" transform="rotate(-32 30 34)"/>
  <rect x="38" y="29" width="10" height="6" rx="1.5" fill="#F3EEE4" transform="rotate(-32 38 29)"/>
  <rect x="30" y="40" width="10" height="6" rx="1.5" fill="#F3EEE4" transform="rotate(32 30 40)"/>
  <rect x="38" y="45" width="10" height="6" rx="1.5" fill="#F3EEE4" transform="rotate(32 38 45)"/>
</svg>
